<?xml version="1.0" encoding="UTF-8" standalone="no"?>
<!DOCTYPE svg PUBLIC "-//W3C//DTD SVG 1.1//EN"
 "http://www.w3.org/Graphics/SVG/1.1/DTD/svg11.dtd">
<!-- Generated by graphviz version 2.43.0 (0)
 -->
<!-- Title: undefined Pages: 1 -->
<svg width="610pt" height="571pt"
 viewBox="0.00 0.00 609.60 570.60" xmlns="http://www.w3.org/2000/svg" xmlns:xlink="http://www.w3.org/1999/xlink">
<g id="graph0" class="graph" transform="scale(1 1) rotate(0) translate(28.8 520.8)">
<title>undefined</title>
<polygon fill="white" stroke="transparent" points="-28.8,49.8 -28.8,-520.8 580.8,-520.8 580.8,49.8 -28.8,49.8"/>
<text text-anchor="start" x="230.5" y="12.6" font-family="Helvetica,sans-Serif" font-weight="bold" font-size="12.00">sql/db.sqlite3</text>
<!-- license -->
<g id="node1" class="node">
<title>license</title>
<path fill="none" stroke="black" d="M420.24,-272.14C420.24,-272.14 540.24,-272.14 540.24,-272.14 546.24,-272.14 552.24,-278.14 552.24,-284.14 552.24,-284.14 552.24,-313.14 552.24,-313.14 552.24,-319.14 546.24,-325.14 540.24,-325.14 540.24,-325.14 420.24,-325.14 420.24,-325.14 414.24,-325.14 408.24,-319.14 408.24,-313.14 408.24,-313.14 408.24,-284.14 408.24,-284.14 408.24,-278.14 414.24,-272.14 420.24,-272.14"/>
<text text-anchor="start" x="454.24" y="-304.74" font-family="Helvetica,sans-Serif" font-weight="bold" font-size="13.00">license</text>
<polyline fill="none" stroke="black" points="408.24,-295.14 552.24,-295.14 "/>
<text text-anchor="start" x="415.24" y="-281.04" font-family="Helvetica,sans-Serif" font-size="12.00">license </text>
<text text-anchor="start" x="461.24" y="-281.04" font-family="Helvetica,sans-Serif" font-weight="bold" font-size="12.00">text</text>
</g>
<!-- version -->
<g id="node2" class="node">
<title>version</title>
<path fill="none" stroke="black" d="M420.24,-102.14C420.24,-102.14 540.24,-102.14 540.24,-102.14 546.24,-102.14 552.24,-108.14 552.24,-114.14 552.24,-114.14 552.24,-211.14 552.24,-211.14 552.24,-217.14 546.24,-223.14 540.24,-223.14 540.24,-223.14 420.24,-223.14 420.24,-223.14 414.24,-223.14 408.24,-217.14 408.24,-211.14 408.24,-211.14 408.24,-114.14 408.24,-114.14 408.24,-108.14 414.24,-102.14 420.24,-102.14"/>
<text text-anchor="start" x="453.24" y="-202.74" font-family="Helvetica,sans-Serif" font-weight="bold" font-size="13.00">version</text>
<polyline fill="none" stroke="black" points="408.24,-193.14 552.24,-193.14 "/>
<text text-anchor="start" x="415.24" y="-179.04" font-family="Helvetica,sans-Serif" font-size="12.00">id* </text>
<text text-anchor="start" x="436.24" y="-179.04" font-family="Helvetica,sans-Serif" font-weight="bold" font-size="12.00">integer</text>
<text text-anchor="start" x="415.24" y="-162.04" font-family="Helvetica,sans-Serif" font-size="12.00">version </text>
<text text-anchor="start" x="463.24" y="-162.04" font-family="Helvetica,sans-Serif" font-weight="bold" font-size="12.00">text</text>
<text text-anchor="start" x="415.24" y="-145.04" font-family="Helvetica,sans-Serif" font-size="12.00">created </text>
<text text-anchor="start" x="465.24" y="-145.04" font-family="Helvetica,sans-Serif" font-weight="bold" font-size="12.00">date</text>
<text text-anchor="start" x="415.24" y="-128.04" font-family="Helvetica,sans-Serif" font-size="12.00">type </text>
<text text-anchor="start" x="446.24" y="-128.04" font-family="Helvetica,sans-Serif" font-weight="bold" font-size="12.00">text</text>
<text text-anchor="start" x="415.24" y="-111.04" font-family="Helvetica,sans-Serif" font-size="12.00">notes </text>
<text text-anchor="start" x="452.24" y="-111.04" font-family="Helvetica,sans-Serif" font-weight="bold" font-size="12.00">text</text>
</g>
<!-- team -->
<g id="node3" class="node">
<title>team</title>
<path fill="none" stroke="black" d="M11.66,-411.47C11.66,-411.47 131.66,-411.47 131.66,-411.47 137.66,-411.47 143.66,-417.47 143.66,-423.47 143.66,-423.47 143.66,-469.47 143.66,-469.47 143.66,-475.47 137.66,-481.47 131.66,-481.47 131.66,-481.47 11.66,-481.47 11.66,-481.47 5.66,-481.47 -0.34,-475.47 -0.34,-469.47 -0.34,-469.47 -0.34,-423.47 -0.34,-423.47 -0.34,-417.47 5.66,-411.47 11.66,-411.47"/>
<text text-anchor="start" x="52.66" y="-461.07" font-family="Helvetica,sans-Serif" font-weight="bold" font-size="13.00">team</text>
<polyline fill="none" stroke="black" points="-0.34,-451.47 143.66,-451.47 "/>
<text text-anchor="start" x="6.66" y="-437.87" font-family="Helvetica,sans-Serif" font-size="12.00">abbrev* </text>
<text text-anchor="start" x="58.66" y="-437.87" font-family="Helvetica,sans-Serif" font-weight="bold" font-size="12.00">text</text>
<text text-anchor="start" x="6.66" y="-420.87" font-family="Helvetica,sans-Serif" font-size="12.00">name </text>
<text text-anchor="start" x="45.66" y="-420.87" font-family="Helvetica,sans-Serif" font-weight="bold" font-size="12.00">text</text>
</g>
<!-- game_type -->
<g id="node4" class="node">
<title>game_type</title>
<path fill="none" stroke="black" d="M390.34,-421.39C390.34,-421.39 510.34,-421.39 510.34,-421.39 516.34,-421.39 522.34,-427.39 522.34,-433.39 522.34,-433.39 522.34,-479.39 522.34,-479.39 522.34,-485.39 516.34,-491.39 510.34,-491.39 510.34,-491.39 390.34,-491.39 390.34,-491.39 384.34,-491.39 378.34,-485.39 378.34,-479.39 378.34,-479.39 378.34,-433.39 378.34,-433.39 378.34,-427.39 384.34,-421.39 390.34,-421.39"/>
<text text-anchor="start" x="410.34" y="-470.99" font-family="Helvetica,sans-Serif" font-weight="bold" font-size="13.00">game_type</text>
<polyline fill="none" stroke="black" points="378.34,-461.39 522.34,-461.39 "/>
<text text-anchor="start" x="385.34" y="-447.79" font-family="Helvetica,sans-Serif" font-size="12.00">type* </text>
<text text-anchor="start" x="422.34" y="-447.79" font-family="Helvetica,sans-Serif" font-weight="bold" font-size="12.00">text</text>
<text text-anchor="start" x="385.34" y="-430.79" font-family="Helvetica,sans-Serif" font-size="12.00">description </text>
<text text-anchor="start" x="455.34" y="-430.79" font-family="Helvetica,sans-Serif" font-weight="bold" font-size="12.00">text</text>
</g>
<!-- game_outcome -->
<g id="node5" class="node">
<title>game_outcome</title>
<path fill="none" stroke="black" d="M276.81,-0.83C276.81,-0.83 396.81,-0.83 396.81,-0.83 402.81,-0.83 408.81,-6.83 408.81,-12.83 408.81,-12.83 408.81,-41.83 408.81,-41.83 408.81,-47.83 402.81,-53.83 396.81,-53.83 396.81,-53.83 276.81,-53.83 276.81,-53.83 270.81,-53.83 264.81,-47.83 264.81,-41.83 264.81,-41.83 264.81,-12.83 264.81,-12.83 264.81,-6.83 270.81,-0.83 276.81,-0.83"/>
<text text-anchor="start" x="281.81" y="-33.43" font-family="Helvetica,sans-Serif" font-weight="bold" font-size="13.00">game_outcome</text>
<polyline fill="none" stroke="black" points="264.81,-23.83 408.81,-23.83 "/>
<text text-anchor="start" x="271.81" y="-9.73" font-family="Helvetica,sans-Serif" font-size="12.00">outcome </text>
<text text-anchor="start" x="329.81" y="-9.73" font-family="Helvetica,sans-Serif" font-weight="bold" font-size="12.00">text</text>
</g>
<!-- game -->
<g id="node6" class="node">
<title>game</title>
<path fill="none" stroke="black" d="M192.32,-199.38C192.32,-199.38 334.32,-199.38 334.32,-199.38 340.32,-199.38 346.32,-205.38 346.32,-211.38 346.32,-211.38 346.32,-393.38 346.32,-393.38 346.32,-399.38 340.32,-405.38 334.32,-405.38 334.32,-405.38 192.32,-405.38 192.32,-405.38 186.32,-405.38 180.32,-399.38 180.32,-393.38 180.32,-393.38 180.32,-211.38 180.32,-211.38 180.32,-205.38 186.32,-199.38 192.32,-199.38"/>
<text text-anchor="start" x="243.32" y="-384.98" font-family="Helvetica,sans-Serif" font-weight="bold" font-size="13.00">game</text>
<polyline fill="none" stroke="black" points="180.32,-375.38 346.32,-375.38 "/>
<text text-anchor="start" x="187.32" y="-361.78" font-family="Helvetica,sans-Serif" font-size="12.00">game_id* </text>
<text text-anchor="start" x="248.32" y="-361.78" font-family="Helvetica,sans-Serif" font-weight="bold" font-size="12.00">integer</text>
<text text-anchor="start" x="187.32" y="-344.78" font-family="Helvetica,sans-Serif" font-size="12.00">season </text>
<text text-anchor="start" x="233.32" y="-344.78" font-family="Helvetica,sans-Serif" font-weight="bold" font-size="12.00">int</text>
<text text-anchor="start" x="187.32" y="-327.78" font-family="Helvetica,sans-Serif" font-size="12.00">date_time </text>
<text text-anchor="start" x="251.32" y="-327.78" font-family="Helvetica,sans-Serif" font-weight="bold" font-size="12.00">datetime</text>
<text text-anchor="start" x="187.32" y="-310.78" font-family="Helvetica,sans-Serif" font-size="12.00">game_type </text>
<text text-anchor="start" x="258.32" y="-310.78" font-family="Helvetica,sans-Serif" font-weight="bold" font-size="12.00">text</text>
<text text-anchor="start" x="187.32" y="-293.78" font-family="Helvetica,sans-Serif" font-size="12.00">team_abbrev_away </text>
<text text-anchor="start" x="308.32" y="-293.78" font-family="Helvetica,sans-Serif" font-weight="bold" font-size="12.00">text</text>
<text text-anchor="start" x="187.32" y="-276.78" font-family="Helvetica,sans-Serif" font-size="12.00">team_abbrev_home </text>
<text text-anchor="start" x="311.32" y="-276.78" font-family="Helvetica,sans-Serif" font-weight="bold" font-size="12.00">text</text>
<text text-anchor="start" x="187.32" y="-259.78" font-family="Helvetica,sans-Serif" font-size="12.00">goals_away </text>
<text text-anchor="start" x="260.32" y="-259.78" font-family="Helvetica,sans-Serif" font-weight="bold" font-size="12.00">int</text>
<text text-anchor="start" x="187.32" y="-242.78" font-family="Helvetica,sans-Serif" font-size="12.00">goals_home </text>
<text text-anchor="start" x="263.32" y="-242.78" font-family="Helvetica,sans-Serif" font-weight="bold" font-size="12.00">int</text>
<text text-anchor="start" x="187.32" y="-225.78" font-family="Helvetica,sans-Serif" font-size="12.00">game_outcome </text>
<text text-anchor="start" x="285.32" y="-225.78" font-family="Helvetica,sans-Serif" font-weight="bold" font-size="12.00">text</text>
<text text-anchor="start" x="187.32" y="-208.78" font-family="Helvetica,sans-Serif" font-size="12.00">venue </text>
<text text-anchor="start" x="228.32" y="-208.78" font-family="Helvetica,sans-Serif" font-weight="bold" font-size="12.00">text</text>
</g>
<!-- game&#45;&gt;team -->
<g id="edge2" class="edge">
<title>game&#45;&gt;team</title>
<path fill="none" stroke="black" stroke-width="0.9" d="M180.09,-364.95C161.45,-378.96 142.17,-393.46 125.12,-406.28"/>
<polygon fill="black" stroke="black" stroke-width="0.9" points="123.17,-404.24 118.46,-411.29 126.53,-408.72 123.17,-404.24"/>
</g>
<!-- game&#45;&gt;team -->
<g id="edge3" class="edge">
<title>game&#45;&gt;team</title>
<path fill="none" stroke="black" stroke-width="0.9" d="M180.09,-364.95C161.45,-378.96 142.17,-393.46 125.12,-406.28"/>
<polygon fill="black" stroke="black" stroke-width="0.9" points="123.17,-404.24 118.46,-411.29 126.53,-408.72 123.17,-404.24"/>
</g>
<!-- game&#45;&gt;game_type -->
<g id="edge4" class="edge">
<title>game&#45;&gt;game_type</title>
<path fill="none" stroke="black" stroke-width="0.9" d="M346.44,-370.83C365.13,-386.22 384.38,-402.07 401.15,-415.89"/>
<polygon fill="black" stroke="black" stroke-width="0.9" points="399.74,-418.35 407.69,-421.27 403.3,-414.03 399.74,-418.35"/>
</g>
<!-- game&#45;&gt;game_outcome -->
<g id="edge1" class="edge">
<title>game&#45;&gt;game_outcome</title>
<path fill="none" stroke="black" stroke-width="0.9" d="M290.89,-199.18C303.83,-150.77 318.38,-96.31 327.57,-61.92"/>
<polygon fill="black" stroke="black" stroke-width="0.9" points="330.31,-62.5 329.67,-54.05 324.9,-61.06 330.31,-62.5"/>
</g>
</g>
</svg>
