<?xml version="1.0" encoding="UTF-8" standalone="no"?>
<!DOCTYPE svg PUBLIC "-//W3C//DTD SVG 1.1//EN"
 "http://www.w3.org/Graphics/SVG/1.1/DTD/svg11.dtd">
<!-- Generated by graphviz version 2.43.0 (0)
 -->
<!-- Title: undefined Pages: 1 -->
<svg width="614pt" height="451pt"
 viewBox="0.00 0.00 613.60 450.60" xmlns="http://www.w3.org/2000/svg" xmlns:xlink="http://www.w3.org/1999/xlink">
<g id="graph0" class="graph" transform="scale(1 1) rotate(0) translate(28.8 400.8)">
<title>undefined</title>
<polygon fill="white" stroke="transparent" points="-28.8,49.8 -28.8,-400.8 584.8,-400.8 584.8,49.8 -28.8,49.8"/>
<text text-anchor="start" x="232.5" y="12.6" font-family="Helvetica,sans-Serif" font-weight="bold" font-size="12.00">sql/db.sqlite3</text>
<!-- license -->
<g id="node1" class="node">
<title>license</title>
<path fill="none" stroke="black" d="M237.24,-250.14C237.24,-250.14 357.24,-250.14 357.24,-250.14 363.24,-250.14 369.24,-256.14 369.24,-262.14 369.24,-262.14 369.24,-291.14 369.24,-291.14 369.24,-297.14 363.24,-303.14 357.24,-303.14 357.24,-303.14 237.24,-303.14 237.24,-303.14 231.24,-303.14 225.24,-297.14 225.24,-291.14 225.24,-291.14 225.24,-262.14 225.24,-262.14 225.24,-256.14 231.24,-250.14 237.24,-250.14"/>
<text text-anchor="start" x="271.24" y="-282.74" font-family="Helvetica,sans-Serif" font-weight="bold" font-size="13.00">license</text>
<polyline fill="none" stroke="black" points="225.24,-273.14 369.24,-273.14 "/>
<text text-anchor="start" x="232.24" y="-259.04" font-family="Helvetica,sans-Serif" font-size="12.00">license </text>
<text text-anchor="start" x="278.24" y="-259.04" font-family="Helvetica,sans-Serif" font-weight="bold" font-size="12.00">text</text>
</g>
<!-- version -->
<g id="node2" class="node">
<title>version</title>
<path fill="none" stroke="black" d="M412.24,-250.14C412.24,-250.14 532.24,-250.14 532.24,-250.14 538.24,-250.14 544.24,-256.14 544.24,-262.14 544.24,-262.14 544.24,-359.14 544.24,-359.14 544.24,-365.14 538.24,-371.14 532.24,-371.14 532.24,-371.14 412.24,-371.14 412.24,-371.14 406.24,-371.14 400.24,-365.14 400.24,-359.14 400.24,-359.14 400.24,-262.14 400.24,-262.14 400.24,-256.14 406.24,-250.14 412.24,-250.14"/>
<text text-anchor="start" x="445.24" y="-350.74" font-family="Helvetica,sans-Serif" font-weight="bold" font-size="13.00">version</text>
<polyline fill="none" stroke="black" points="400.24,-341.14 544.24,-341.14 "/>
<text text-anchor="start" x="407.24" y="-327.04" font-family="Helvetica,sans-Serif" font-size="12.00">id* </text>
<text text-anchor="start" x="428.24" y="-327.04" font-family="Helvetica,sans-Serif" font-weight="bold" font-size="12.00">integer</text>
<text text-anchor="start" x="407.24" y="-310.04" font-family="Helvetica,sans-Serif" font-size="12.00">version </text>
<text text-anchor="start" x="455.24" y="-310.04" font-family="Helvetica,sans-Serif" font-weight="bold" font-size="12.00">text</text>
<text text-anchor="start" x="407.24" y="-293.04" font-family="Helvetica,sans-Serif" font-size="12.00">created </text>
<text text-anchor="start" x="457.24" y="-293.04" font-family="Helvetica,sans-Serif" font-weight="bold" font-size="12.00">date</text>
<text text-anchor="start" x="407.24" y="-276.04" font-family="Helvetica,sans-Serif" font-size="12.00">type </text>
<text text-anchor="start" x="438.24" y="-276.04" font-family="Helvetica,sans-Serif" font-weight="bold" font-size="12.00">text</text>
<text text-anchor="start" x="407.24" y="-259.04" font-family="Helvetica,sans-Serif" font-size="12.00">notes </text>
<text text-anchor="start" x="444.24" y="-259.04" font-family="Helvetica,sans-Serif" font-weight="bold" font-size="12.00">text</text>
</g>
<!-- team -->
<g id="node3" class="node">
<title>team</title>
<path fill="none" stroke="black" d="M11.51,-152.42C11.51,-152.42 131.51,-152.42 131.51,-152.42 137.51,-152.42 143.51,-158.42 143.51,-164.42 143.51,-164.42 143.51,-210.42 143.51,-210.42 143.51,-216.42 137.51,-222.42 131.51,-222.42 131.51,-222.42 11.51,-222.42 11.51,-222.42 5.51,-222.42 -0.49,-216.42 -0.49,-210.42 -0.49,-210.42 -0.49,-164.42 -0.49,-164.42 -0.49,-158.42 5.51,-152.42 11.51,-152.42"/>
<text text-anchor="start" x="52.51" y="-202.02" font-family="Helvetica,sans-Serif" font-weight="bold" font-size="13.00">team</text>
<polyline fill="none" stroke="black" points="-0.49,-192.42 143.51,-192.42 "/>
<text text-anchor="start" x="6.51" y="-178.82" font-family="Helvetica,sans-Serif" font-size="12.00">abbrev* </text>
<text text-anchor="start" x="58.51" y="-178.82" font-family="Helvetica,sans-Serif" font-weight="bold" font-size="12.00">text</text>
<text text-anchor="start" x="6.51" y="-161.82" font-family="Helvetica,sans-Serif" font-size="12.00">name </text>
<text text-anchor="start" x="45.51" y="-161.82" font-family="Helvetica,sans-Serif" font-weight="bold" font-size="12.00">text</text>
</g>
<!-- game_type -->
<g id="node4" class="node">
<title>game_type</title>
<path fill="none" stroke="black" d="M423.91,-141.85C423.91,-141.85 543.91,-141.85 543.91,-141.85 549.91,-141.85 555.91,-147.85 555.91,-153.85 555.91,-153.85 555.91,-199.85 555.91,-199.85 555.91,-205.85 549.91,-211.85 543.91,-211.85 543.91,-211.85 423.91,-211.85 423.91,-211.85 417.91,-211.85 411.91,-205.85 411.91,-199.85 411.91,-199.85 411.91,-153.85 411.91,-153.85 411.91,-147.85 417.91,-141.85 423.91,-141.85"/>
<text text-anchor="start" x="443.91" y="-191.45" font-family="Helvetica,sans-Serif" font-weight="bold" font-size="13.00">game_type</text>
<polyline fill="none" stroke="black" points="411.91,-181.85 555.91,-181.85 "/>
<text text-anchor="start" x="418.91" y="-168.25" font-family="Helvetica,sans-Serif" font-size="12.00">type* </text>
<text text-anchor="start" x="455.91" y="-168.25" font-family="Helvetica,sans-Serif" font-weight="bold" font-size="12.00">text</text>
<text text-anchor="start" x="418.91" y="-151.25" font-family="Helvetica,sans-Serif" font-size="12.00">description </text>
<text text-anchor="start" x="488.91" y="-151.25" font-family="Helvetica,sans-Serif" font-weight="bold" font-size="12.00">text</text>
</g>
<!-- game -->
<g id="node5" class="node">
<title>game</title>
<path fill="none" stroke="black" d="M225.89,-0.72C225.89,-0.72 367.89,-0.72 367.89,-0.72 373.89,-0.72 379.89,-6.72 379.89,-12.72 379.89,-12.72 379.89,-194.72 379.89,-194.72 379.89,-200.72 373.89,-206.72 367.89,-206.72 367.89,-206.72 225.89,-206.72 225.89,-206.72 219.89,-206.72 213.89,-200.72 213.89,-194.72 213.89,-194.72 213.89,-12.72 213.89,-12.72 213.89,-6.72 219.89,-0.72 225.89,-0.72"/>
<text text-anchor="start" x="276.89" y="-186.32" font-family="Helvetica,sans-Serif" font-weight="bold" font-size="13.00">game</text>
<polyline fill="none" stroke="black" points="213.89,-176.72 379.89,-176.72 "/>
<text text-anchor="start" x="220.89" y="-163.12" font-family="Helvetica,sans-Serif" font-size="12.00">game_id* </text>
<text text-anchor="start" x="281.89" y="-163.12" font-family="Helvetica,sans-Serif" font-weight="bold" font-size="12.00">integer</text>
<text text-anchor="start" x="220.89" y="-146.12" font-family="Helvetica,sans-Serif" font-size="12.00">season </text>
<text text-anchor="start" x="266.89" y="-146.12" font-family="Helvetica,sans-Serif" font-weight="bold" font-size="12.00">int</text>
<text text-anchor="start" x="220.89" y="-129.12" font-family="Helvetica,sans-Serif" font-size="12.00">date_time </text>
<text text-anchor="start" x="284.89" y="-129.12" font-family="Helvetica,sans-Serif" font-weight="bold" font-size="12.00">datetime</text>
<text text-anchor="start" x="220.89" y="-112.12" font-family="Helvetica,sans-Serif" font-size="12.00">game_type </text>
<text text-anchor="start" x="291.89" y="-112.12" font-family="Helvetica,sans-Serif" font-weight="bold" font-size="12.00">text</text>
<text text-anchor="start" x="220.89" y="-95.12" font-family="Helvetica,sans-Serif" font-size="12.00">team_abbrev_away </text>
<text text-anchor="start" x="341.89" y="-95.12" font-family="Helvetica,sans-Serif" font-weight="bold" font-size="12.00">text</text>
<text text-anchor="start" x="220.89" y="-78.12" font-family="Helvetica,sans-Serif" font-size="12.00">team_abbrev_home </text>
<text text-anchor="start" x="344.89" y="-78.12" font-family="Helvetica,sans-Serif" font-weight="bold" font-size="12.00">text</text>
<text text-anchor="start" x="220.89" y="-61.12" font-family="Helvetica,sans-Serif" font-size="12.00">goals_away </text>
<text text-anchor="start" x="293.89" y="-61.12" font-family="Helvetica,sans-Serif" font-weight="bold" font-size="12.00">int</text>
<text text-anchor="start" x="220.89" y="-44.12" font-family="Helvetica,sans-Serif" font-size="12.00">goals_home </text>
<text text-anchor="start" x="296.89" y="-44.12" font-family="Helvetica,sans-Serif" font-weight="bold" font-size="12.00">int</text>
<text text-anchor="start" x="220.89" y="-27.12" font-family="Helvetica,sans-Serif" font-size="12.00">outcome </text>
<text text-anchor="start" x="278.89" y="-27.12" font-family="Helvetica,sans-Serif" font-weight="bold" font-size="12.00">text</text>
<text text-anchor="start" x="220.89" y="-10.12" font-family="Helvetica,sans-Serif" font-size="12.00">venue </text>
<text text-anchor="start" x="261.89" y="-10.12" font-family="Helvetica,sans-Serif" font-weight="bold" font-size="12.00">text</text>
</g>
<!-- game&#45;&gt;team -->
<g id="edge1" class="edge">
<title>game&#45;&gt;team</title>
<path fill="none" stroke="black" stroke-width="0.9" d="M213.61,-134.65C193.26,-142.21 171.54,-150.27 151.35,-157.77"/>
<polygon fill="black" stroke="black" stroke-width="0.9" points="150.23,-155.2 143.7,-160.61 152.17,-160.45 150.23,-155.2"/>
</g>
<!-- game&#45;&gt;team -->
<g id="edge2" class="edge">
<title>game&#45;&gt;team</title>
<path fill="none" stroke="black" stroke-width="0.9" d="M213.61,-134.65C193.26,-142.21 171.54,-150.27 151.35,-157.77"/>
<polygon fill="black" stroke="black" stroke-width="0.9" points="150.23,-155.2 143.7,-160.61 152.17,-160.45 150.23,-155.2"/>
</g>
<!-- game&#45;&gt;game_type -->
<g id="edge3" class="edge">
<title>game&#45;&gt;game_type</title>
<path fill="none" stroke="black" stroke-width="0.9" d="M380.01,-136.22C387.98,-139.34 396.06,-142.5 404,-145.6"/>
<polygon fill="black" stroke="black" stroke-width="0.9" points="403.42,-148.38 411.89,-148.69 405.46,-143.17 403.42,-148.38"/>
</g>
</g>
</svg>
