<?xml version="1.0" encoding="UTF-8" standalone="no"?>
<!DOCTYPE svg PUBLIC "-//W3C//DTD SVG 1.1//EN"
 "http://www.w3.org/Graphics/SVG/1.1/DTD/svg11.dtd">
<!-- Generated by graphviz version 2.43.0 (0)
 -->
<!-- Title: undefined Pages: 1 -->
<svg width="644pt" height="555pt"
 viewBox="0.00 0.00 643.60 554.60" xmlns="http://www.w3.org/2000/svg" xmlns:xlink="http://www.w3.org/1999/xlink">
<g id="graph0" class="graph" transform="scale(1 1) rotate(0) translate(28.8 504.8)">
<title>undefined</title>
<polygon fill="white" stroke="transparent" points="-28.8,49.8 -28.8,-504.8 614.8,-504.8 614.8,49.8 -28.8,49.8"/>
<text text-anchor="start" x="247.5" y="12.6" font-family="Helvetica,sans-Serif" font-weight="bold" font-size="12.00">sql/db.sqlite3</text>
<!-- license -->
<g id="node1" class="node">
<title>license</title>
<path fill="none" stroke="black" d="M454.24,-408.14C454.24,-408.14 574.24,-408.14 574.24,-408.14 580.24,-408.14 586.24,-414.14 586.24,-420.14 586.24,-420.14 586.24,-449.14 586.24,-449.14 586.24,-455.14 580.24,-461.14 574.24,-461.14 574.24,-461.14 454.24,-461.14 454.24,-461.14 448.24,-461.14 442.24,-455.14 442.24,-449.14 442.24,-449.14 442.24,-420.14 442.24,-420.14 442.24,-414.14 448.24,-408.14 454.24,-408.14"/>
<text text-anchor="start" x="488.24" y="-440.74" font-family="Helvetica,sans-Serif" font-weight="bold" font-size="13.00">license</text>
<polyline fill="none" stroke="black" points="442.24,-431.14 586.24,-431.14 "/>
<text text-anchor="start" x="449.24" y="-417.04" font-family="Helvetica,sans-Serif" font-size="12.00">license </text>
<text text-anchor="start" x="495.24" y="-417.04" font-family="Helvetica,sans-Serif" font-weight="bold" font-size="12.00">text</text>
</g>
<!-- version -->
<g id="node2" class="node">
<title>version</title>
<path fill="none" stroke="black" d="M454.24,-136.14C454.24,-136.14 574.24,-136.14 574.24,-136.14 580.24,-136.14 586.24,-142.14 586.24,-148.14 586.24,-148.14 586.24,-245.14 586.24,-245.14 586.24,-251.14 580.24,-257.14 574.24,-257.14 574.24,-257.14 454.24,-257.14 454.24,-257.14 448.24,-257.14 442.24,-251.14 442.24,-245.14 442.24,-245.14 442.24,-148.14 442.24,-148.14 442.24,-142.14 448.24,-136.14 454.24,-136.14"/>
<text text-anchor="start" x="487.24" y="-236.74" font-family="Helvetica,sans-Serif" font-weight="bold" font-size="13.00">version</text>
<polyline fill="none" stroke="black" points="442.24,-227.14 586.24,-227.14 "/>
<text text-anchor="start" x="449.24" y="-213.04" font-family="Helvetica,sans-Serif" font-size="12.00">id* </text>
<text text-anchor="start" x="470.24" y="-213.04" font-family="Helvetica,sans-Serif" font-weight="bold" font-size="12.00">integer</text>
<text text-anchor="start" x="449.24" y="-196.04" font-family="Helvetica,sans-Serif" font-size="12.00">version </text>
<text text-anchor="start" x="497.24" y="-196.04" font-family="Helvetica,sans-Serif" font-weight="bold" font-size="12.00">text</text>
<text text-anchor="start" x="449.24" y="-179.04" font-family="Helvetica,sans-Serif" font-size="12.00">created </text>
<text text-anchor="start" x="499.24" y="-179.04" font-family="Helvetica,sans-Serif" font-weight="bold" font-size="12.00">date</text>
<text text-anchor="start" x="449.24" y="-162.04" font-family="Helvetica,sans-Serif" font-size="12.00">type </text>
<text text-anchor="start" x="480.24" y="-162.04" font-family="Helvetica,sans-Serif" font-weight="bold" font-size="12.00">text</text>
<text text-anchor="start" x="449.24" y="-145.04" font-family="Helvetica,sans-Serif" font-size="12.00">notes </text>
<text text-anchor="start" x="486.24" y="-145.04" font-family="Helvetica,sans-Serif" font-weight="bold" font-size="12.00">text</text>
</g>
<!-- season -->
<g id="node3" class="node">
<title>season</title>
<path fill="none" stroke="black" d="M11.82,-115.38C11.82,-115.38 131.82,-115.38 131.82,-115.38 137.82,-115.38 143.82,-121.38 143.82,-127.38 143.82,-127.38 143.82,-190.38 143.82,-190.38 143.82,-196.38 137.82,-202.38 131.82,-202.38 131.82,-202.38 11.82,-202.38 11.82,-202.38 5.82,-202.38 -0.18,-196.38 -0.18,-190.38 -0.18,-190.38 -0.18,-127.38 -0.18,-127.38 -0.18,-121.38 5.82,-115.38 11.82,-115.38"/>
<text text-anchor="start" x="45.82" y="-181.98" font-family="Helvetica,sans-Serif" font-weight="bold" font-size="13.00">season</text>
<polyline fill="none" stroke="black" points="-0.18,-172.38 143.82,-172.38 "/>
<text text-anchor="start" x="6.82" y="-158.28" font-family="Helvetica,sans-Serif" font-size="12.00">season* </text>
<text text-anchor="start" x="58.82" y="-158.28" font-family="Helvetica,sans-Serif" font-weight="bold" font-size="12.00">int</text>
<text text-anchor="start" x="6.82" y="-141.28" font-family="Helvetica,sans-Serif" font-size="12.00">year_start </text>
<text text-anchor="start" x="71.82" y="-141.28" font-family="Helvetica,sans-Serif" font-weight="bold" font-size="12.00">int</text>
<text text-anchor="start" x="6.82" y="-124.28" font-family="Helvetica,sans-Serif" font-size="12.00">year_end </text>
<text text-anchor="start" x="66.82" y="-124.28" font-family="Helvetica,sans-Serif" font-weight="bold" font-size="12.00">int</text>
</g>
<!-- team -->
<g id="node4" class="node">
<title>team</title>
<path fill="none" stroke="black" d="M427.1,-280.07C427.1,-280.07 547.1,-280.07 547.1,-280.07 553.1,-280.07 559.1,-286.07 559.1,-292.07 559.1,-292.07 559.1,-338.07 559.1,-338.07 559.1,-344.07 553.1,-350.07 547.1,-350.07 547.1,-350.07 427.1,-350.07 427.1,-350.07 421.1,-350.07 415.1,-344.07 415.1,-338.07 415.1,-338.07 415.1,-292.07 415.1,-292.07 415.1,-286.07 421.1,-280.07 427.1,-280.07"/>
<text text-anchor="start" x="468.1" y="-329.67" font-family="Helvetica,sans-Serif" font-weight="bold" font-size="13.00">team</text>
<polyline fill="none" stroke="black" points="415.1,-320.07 559.1,-320.07 "/>
<text text-anchor="start" x="422.1" y="-306.47" font-family="Helvetica,sans-Serif" font-size="12.00">abbrev* </text>
<text text-anchor="start" x="474.1" y="-306.47" font-family="Helvetica,sans-Serif" font-weight="bold" font-size="12.00">text</text>
<text text-anchor="start" x="422.1" y="-289.47" font-family="Helvetica,sans-Serif" font-size="12.00">name </text>
<text text-anchor="start" x="461.1" y="-289.47" font-family="Helvetica,sans-Serif" font-weight="bold" font-size="12.00">text</text>
</g>
<!-- game_type -->
<g id="node5" class="node">
<title>game_type</title>
<path fill="none" stroke="black" d="M307.33,-0.49C307.33,-0.49 427.33,-0.49 427.33,-0.49 433.33,-0.49 439.33,-6.49 439.33,-12.49 439.33,-12.49 439.33,-58.49 439.33,-58.49 439.33,-64.49 433.33,-70.49 427.33,-70.49 427.33,-70.49 307.33,-70.49 307.33,-70.49 301.33,-70.49 295.33,-64.49 295.33,-58.49 295.33,-58.49 295.33,-12.49 295.33,-12.49 295.33,-6.49 301.33,-0.49 307.33,-0.49"/>
<text text-anchor="start" x="327.33" y="-50.09" font-family="Helvetica,sans-Serif" font-weight="bold" font-size="13.00">game_type</text>
<polyline fill="none" stroke="black" points="295.33,-40.49 439.33,-40.49 "/>
<text text-anchor="start" x="302.33" y="-26.89" font-family="Helvetica,sans-Serif" font-size="12.00">type* </text>
<text text-anchor="start" x="339.33" y="-26.89" font-family="Helvetica,sans-Serif" font-weight="bold" font-size="12.00">text</text>
<text text-anchor="start" x="302.33" y="-9.89" font-family="Helvetica,sans-Serif" font-size="12.00">description </text>
<text text-anchor="start" x="372.33" y="-9.89" font-family="Helvetica,sans-Serif" font-weight="bold" font-size="12.00">text</text>
</g>
<!-- game_outcome -->
<g id="node6" class="node">
<title>game_outcome</title>
<path fill="none" stroke="black" d="M147.89,-422.95C147.89,-422.95 267.89,-422.95 267.89,-422.95 273.89,-422.95 279.89,-428.95 279.89,-434.95 279.89,-434.95 279.89,-463.95 279.89,-463.95 279.89,-469.95 273.89,-475.95 267.89,-475.95 267.89,-475.95 147.89,-475.95 147.89,-475.95 141.89,-475.95 135.89,-469.95 135.89,-463.95 135.89,-463.95 135.89,-434.95 135.89,-434.95 135.89,-428.95 141.89,-422.95 147.89,-422.95"/>
<text text-anchor="start" x="152.89" y="-455.55" font-family="Helvetica,sans-Serif" font-weight="bold" font-size="13.00">game_outcome</text>
<polyline fill="none" stroke="black" points="135.89,-445.95 279.89,-445.95 "/>
<text text-anchor="start" x="142.89" y="-431.85" font-family="Helvetica,sans-Serif" font-size="12.00">outcome* </text>
<text text-anchor="start" x="206.89" y="-431.85" font-family="Helvetica,sans-Serif" font-weight="bold" font-size="12.00">text</text>
</g>
<!-- game -->
<g id="node7" class="node">
<title>game</title>
<path fill="none" stroke="black" d="M229.08,-143.32C229.08,-143.32 371.08,-143.32 371.08,-143.32 377.08,-143.32 383.08,-149.32 383.08,-155.32 383.08,-155.32 383.08,-337.32 383.08,-337.32 383.08,-343.32 377.08,-349.32 371.08,-349.32 371.08,-349.32 229.08,-349.32 229.08,-349.32 223.08,-349.32 217.08,-343.32 217.08,-337.32 217.08,-337.32 217.08,-155.32 217.08,-155.32 217.08,-149.32 223.08,-143.32 229.08,-143.32"/>
<text text-anchor="start" x="280.08" y="-328.92" font-family="Helvetica,sans-Serif" font-weight="bold" font-size="13.00">game</text>
<polyline fill="none" stroke="black" points="217.08,-319.32 383.08,-319.32 "/>
<text text-anchor="start" x="224.08" y="-305.72" font-family="Helvetica,sans-Serif" font-size="12.00">game_id* </text>
<text text-anchor="start" x="285.08" y="-305.72" font-family="Helvetica,sans-Serif" font-weight="bold" font-size="12.00">integer</text>
<text text-anchor="start" x="224.08" y="-288.72" font-family="Helvetica,sans-Serif" font-size="12.00">season </text>
<text text-anchor="start" x="270.08" y="-288.72" font-family="Helvetica,sans-Serif" font-weight="bold" font-size="12.00">int</text>
<text text-anchor="start" x="224.08" y="-271.72" font-family="Helvetica,sans-Serif" font-size="12.00">date_time </text>
<text text-anchor="start" x="288.08" y="-271.72" font-family="Helvetica,sans-Serif" font-weight="bold" font-size="12.00">datetime</text>
<text text-anchor="start" x="224.08" y="-254.72" font-family="Helvetica,sans-Serif" font-size="12.00">game_type </text>
<text text-anchor="start" x="295.08" y="-254.72" font-family="Helvetica,sans-Serif" font-weight="bold" font-size="12.00">text</text>
<text text-anchor="start" x="224.08" y="-237.72" font-family="Helvetica,sans-Serif" font-size="12.00">team_abbrev_away </text>
<text text-anchor="start" x="345.08" y="-237.72" font-family="Helvetica,sans-Serif" font-weight="bold" font-size="12.00">text</text>
<text text-anchor="start" x="224.08" y="-220.72" font-family="Helvetica,sans-Serif" font-size="12.00">team_abbrev_home </text>
<text text-anchor="start" x="348.08" y="-220.72" font-family="Helvetica,sans-Serif" font-weight="bold" font-size="12.00">text</text>
<text text-anchor="start" x="224.08" y="-203.72" font-family="Helvetica,sans-Serif" font-size="12.00">goals_away </text>
<text text-anchor="start" x="297.08" y="-203.72" font-family="Helvetica,sans-Serif" font-weight="bold" font-size="12.00">int</text>
<text text-anchor="start" x="224.08" y="-186.72" font-family="Helvetica,sans-Serif" font-size="12.00">goals_home </text>
<text text-anchor="start" x="300.08" y="-186.72" font-family="Helvetica,sans-Serif" font-weight="bold" font-size="12.00">int</text>
<text text-anchor="start" x="224.08" y="-169.72" font-family="Helvetica,sans-Serif" font-size="12.00">outcome </text>
<text text-anchor="start" x="282.08" y="-169.72" font-family="Helvetica,sans-Serif" font-weight="bold" font-size="12.00">text</text>
<text text-anchor="start" x="224.08" y="-152.72" font-family="Helvetica,sans-Serif" font-size="12.00">venue </text>
<text text-anchor="start" x="265.08" y="-152.72" font-family="Helvetica,sans-Serif" font-weight="bold" font-size="12.00">text</text>
</g>
<!-- game&#45;&gt;season -->
<g id="edge5" class="edge">
<title>game&#45;&gt;season</title>
<path fill="none" stroke="black" stroke-width="0.9" d="M217.03,-214.5C195.69,-206.33 172.77,-197.55 151.6,-189.44"/>
<polygon fill="black" stroke="black" stroke-width="0.9" points="152.36,-186.73 143.88,-186.48 150.35,-191.96 152.36,-186.73"/>
</g>
<!-- game&#45;&gt;team -->
<g id="edge2" class="edge">
<title>game&#45;&gt;team</title>
<path fill="none" stroke="black" stroke-width="0.9" d="M383.2,-276.88C391.17,-279.81 399.25,-282.78 407.2,-285.7"/>
<polygon fill="black" stroke="black" stroke-width="0.9" points="406.61,-288.47 415.09,-288.6 408.54,-283.21 406.61,-288.47"/>
</g>
<!-- game&#45;&gt;team -->
<g id="edge3" class="edge">
<title>game&#45;&gt;team</title>
<path fill="none" stroke="black" stroke-width="0.9" d="M383.2,-276.88C391.17,-279.81 399.25,-282.78 407.2,-285.7"/>
<polygon fill="black" stroke="black" stroke-width="0.9" points="406.61,-288.47 415.09,-288.6 408.54,-283.21 406.61,-288.47"/>
</g>
<!-- game&#45;&gt;game_type -->
<g id="edge4" class="edge">
<title>game&#45;&gt;game_type</title>
<path fill="none" stroke="black" stroke-width="0.9" d="M333.02,-143.07C340.3,-120.24 347.62,-97.28 353.62,-78.47"/>
<polygon fill="black" stroke="black" stroke-width="0.9" points="356.34,-79.15 356.11,-70.68 351.01,-77.45 356.34,-79.15"/>
</g>
<!-- game&#45;&gt;game_outcome -->
<g id="edge1" class="edge">
<title>game&#45;&gt;game_outcome</title>
<path fill="none" stroke="black" stroke-width="0.9" d="M253.31,-349.37C242.54,-373.09 231.83,-396.7 223.51,-415.02"/>
<polygon fill="black" stroke="black" stroke-width="0.9" points="220.86,-414.1 220.1,-422.54 225.96,-416.41 220.86,-414.1"/>
</g>
</g>
</svg>
